# Blender v3.0.0 OBJ File: 'File.blend'
# www.blender.org
mtllib Model.mtl
o Cube_Cube.001
v -0.200000 -0.300000 1.000000
v -0.200000 1.000000 1.000000
v -0.200000 -0.300000 0.600000
v -0.200000 1.000000 0.600000
v 0.200000 -0.300000 1.000000
v 0.200000 1.000000 1.000000
v 0.200000 -0.300000 0.600000
v 0.200000 1.000000 0.600000
vt 0.375000 0.000000
vt 0.625000 0.000000
vt 0.625000 0.250000
vt 0.375000 0.250000
vt 0.625000 0.500000
vt 0.375000 0.500000
vt 0.625000 0.750000
vt 0.375000 0.750000
vt 0.625000 1.000000
vt 0.375000 1.000000
vt 0.125000 0.500000
vt 0.125000 0.750000
vt 0.875000 0.500000
vt 0.875000 0.750000
vn -1.0000 0.0000 0.0000
vn 0.0000 0.0000 -1.0000
vn 1.0000 0.0000 0.0000
vn 0.0000 0.0000 1.0000
vn 0.0000 -1.0000 0.0000
vn 0.0000 1.0000 0.0000
usemtl Body
s off
f 1/1/1 2/2/1 4/3/1 3/4/1
f 3/4/2 4/3/2 8/5/2 7/6/2
f 7/6/3 8/5/3 6/7/3 5/8/3
f 5/8/4 6/7/4 2/9/4 1/10/4
f 3/11/5 7/6/5 5/8/5 1/12/5
f 8/5/6 4/13/6 2/14/6 6/7/6
o Cube.001_Cube.002
v -0.200000 -0.300000 -0.600000
v -0.200000 1.000000 -0.600000
v -0.200000 -0.300000 -1.000000
v -0.200000 1.000000 -1.000000
v 0.200000 -0.300000 -0.600000
v 0.200000 1.000000 -0.600000
v 0.200000 -0.300000 -1.000000
v 0.200000 1.000000 -1.000000
vt 0.375000 0.000000
vt 0.625000 0.000000
vt 0.625000 0.250000
vt 0.375000 0.250000
vt 0.625000 0.500000
vt 0.375000 0.500000
vt 0.625000 0.750000
vt 0.375000 0.750000
vt 0.625000 1.000000
vt 0.375000 1.000000
vt 0.125000 0.500000
vt 0.125000 0.750000
vt 0.875000 0.500000
vt 0.875000 0.750000
vn -1.0000 0.0000 0.0000
vn 0.0000 0.0000 -1.0000
vn 1.0000 0.0000 0.0000
vn 0.0000 0.0000 1.0000
vn 0.0000 -1.0000 0.0000
vn 0.0000 1.0000 0.0000
usemtl Body
s off
f 9/15/7 10/16/7 12/17/7 11/18/7
f 11/18/8 12/17/8 16/19/8 15/20/8
f 15/20/9 16/19/9 14/21/9 13/22/9
f 13/22/10 14/21/10 10/23/10 9/24/10
f 11/25/11 15/20/11 13/22/11 9/26/11
f 16/19/12 12/27/12 10/28/12 14/21/12
o Cube.002_Cube.003
v -0.200000 1.000000 1.000000
v -0.200000 3.500000 1.000000
v -0.200000 1.000000 -1.000000
v -0.200000 3.500000 -1.000000
v 0.200000 1.000000 1.000000
v 0.200000 3.500000 1.000000
v 0.200000 1.000000 -1.000000
v 0.200000 3.500000 -1.000000
vt 0.375000 0.000000
vt 0.625000 0.000000
vt 0.625000 0.250000
vt 0.375000 0.250000
vt 0.625000 0.500000
vt 0.375000 0.500000
vt 0.625000 0.750000
vt 0.375000 0.750000
vt 0.625000 1.000000
vt 0.375000 1.000000
vt 0.125000 0.500000
vt 0.125000 0.750000
vt 0.875000 0.500000
vt 0.875000 0.750000
vn -1.0000 0.0000 0.0000
vn 0.0000 0.0000 -1.0000
vn 1.0000 0.0000 0.0000
vn 0.0000 0.0000 1.0000
vn 0.0000 -1.0000 0.0000
vn 0.0000 1.0000 0.0000
usemtl Body
s off
f 17/29/13 18/30/13 20/31/13 19/32/13
f 19/32/14 20/31/14 24/33/14 23/34/14
f 23/34/15 24/33/15 22/35/15 21/36/15
f 21/36/16 22/35/16 18/37/16 17/38/16
f 19/39/17 23/34/17 21/36/17 17/40/17
f 24/33/18 20/41/18 18/42/18 22/35/18
o Cube.003_Cube.004
v -0.200000 1.500000 -1.000000
v -0.200000 3.500000 -1.000000
v -0.200000 1.500000 -1.400000
v -0.200000 3.500000 -1.400000
v 0.200000 1.500000 -1.000000
v 0.200000 3.500000 -1.000000
v 0.200000 1.500000 -1.400000
v 0.200000 3.500000 -1.400000
vt 0.375000 0.000000
vt 0.625000 0.000000
vt 0.625000 0.250000
vt 0.375000 0.250000
vt 0.625000 0.500000
vt 0.375000 0.500000
vt 0.625000 0.750000
vt 0.375000 0.750000
vt 0.625000 1.000000
vt 0.375000 1.000000
vt 0.125000 0.500000
vt 0.125000 0.750000
vt 0.875000 0.500000
vt 0.875000 0.750000
vn -1.0000 0.0000 0.0000
vn 0.0000 0.0000 -1.0000
vn 1.0000 0.0000 0.0000
vn 0.0000 0.0000 1.0000
vn 0.0000 -1.0000 0.0000
vn 0.0000 1.0000 0.0000
usemtl Body
s off
f 25/43/19 26/44/19 28/45/19 27/46/19
f 27/46/20 28/45/20 32/47/20 31/48/20
f 31/48/21 32/47/21 30/49/21 29/50/21
f 29/50/22 30/49/22 26/51/22 25/52/22
f 27/53/23 31/48/23 29/50/23 25/54/23
f 32/47/24 28/55/24 26/56/24 30/49/24
o Cube.004_Cube.005
v -0.200000 1.500000 1.400000
v -0.200000 3.500000 1.400000
v -0.200000 1.500000 1.000000
v -0.200000 3.500000 1.000000
v 0.200000 1.500000 1.400000
v 0.200000 3.500000 1.400000
v 0.200000 1.500000 1.000000
v 0.200000 3.500000 1.000000
vt 0.375000 0.000000
vt 0.625000 0.000000
vt 0.625000 0.250000
vt 0.375000 0.250000
vt 0.625000 0.500000
vt 0.375000 0.500000
vt 0.625000 0.750000
vt 0.375000 0.750000
vt 0.625000 1.000000
vt 0.375000 1.000000
vt 0.125000 0.500000
vt 0.125000 0.750000
vt 0.875000 0.500000
vt 0.875000 0.750000
vn -1.0000 0.0000 0.0000
vn 0.0000 0.0000 -1.0000
vn 1.0000 0.0000 0.0000
vn 0.0000 0.0000 1.0000
vn 0.0000 -1.0000 0.0000
vn 0.0000 1.0000 0.0000
usemtl Body
s off
f 33/57/25 34/58/25 36/59/25 35/60/25
f 35/60/26 36/59/26 40/61/26 39/62/26
f 39/62/27 40/61/27 38/63/27 37/64/27
f 37/64/28 38/63/28 34/65/28 33/66/28
f 35/67/29 39/62/29 37/64/29 33/68/29
f 40/61/30 36/69/30 34/70/30 38/63/30
o Cube.005_Cube.006
v -0.200000 3.500000 0.500000
v -0.200000 5.100000 0.500000
v -0.200000 3.500000 -0.500000
v -0.200000 5.100000 -0.500000
v 0.200000 3.500000 0.500000
v 0.200000 5.100000 0.500000
v 0.200000 3.500000 -0.500000
v 0.200000 5.100000 -0.500000
vt 0.375000 0.000000
vt 0.625000 0.000000
vt 0.625000 0.250000
vt 0.375000 0.250000
vt 0.625000 0.500000
vt 0.375000 0.500000
vt 0.625000 0.750000
vt 0.375000 0.750000
vt 0.625000 1.000000
vt 0.375000 1.000000
vt 0.125000 0.500000
vt 0.125000 0.750000
vt 0.875000 0.500000
vt 0.875000 0.750000
vn -1.0000 0.0000 0.0000
vn 0.0000 0.0000 -1.0000
vn 1.0000 0.0000 0.0000
vn 0.0000 0.0000 1.0000
vn 0.0000 -1.0000 0.0000
vn 0.0000 1.0000 0.0000
usemtl Body
s off
f 41/71/31 42/72/31 44/73/31 43/74/31
f 43/74/32 44/73/32 48/75/32 47/76/32
f 47/76/33 48/75/33 46/77/33 45/78/33
f 45/78/34 46/77/34 42/79/34 41/80/34
f 43/81/35 47/76/35 45/78/35 41/82/35
f 48/75/36 44/83/36 42/84/36 46/77/36
o Cube.006_Cube.007
v -0.200000 5.100000 -1.000000
v -0.200000 5.100000 1.000000
v -0.200000 5.500000 -1.000000
v -0.200000 5.500000 1.000000
v 0.200000 5.100000 -1.000000
v 0.200000 5.100000 1.000000
v 0.200000 5.500000 -1.000000
v 0.200000 5.500000 1.000000
vt 0.375000 0.000000
vt 0.625000 0.000000
vt 0.625000 0.250000
vt 0.375000 0.250000
vt 0.625000 0.500000
vt 0.375000 0.500000
vt 0.625000 0.750000
vt 0.375000 0.750000
vt 0.625000 1.000000
vt 0.375000 1.000000
vt 0.125000 0.500000
vt 0.125000 0.750000
vt 0.875000 0.500000
vt 0.875000 0.750000
vn -1.0000 0.0000 0.0000
vn 0.0000 1.0000 -0.0000
vn 1.0000 0.0000 0.0000
vn 0.0000 -1.0000 0.0000
vn 0.0000 0.0000 -1.0000
vn 0.0000 0.0000 1.0000
usemtl Default
s off
f 49/85/37 50/86/37 52/87/37 51/88/37
f 51/88/38 52/87/38 56/89/38 55/90/38
f 55/90/39 56/89/39 54/91/39 53/92/39
f 53/92/40 54/91/40 50/93/40 49/94/40
f 51/95/41 55/90/41 53/92/41 49/96/41
f 56/89/42 52/97/42 50/98/42 54/91/42
o Cube.007_Cube.008
v -0.600000 1.700000 1.000000
v -0.600000 3.500000 1.000000
v -0.600000 1.700000 -1.000000
v -0.600000 3.500000 -1.000000
v -0.200000 1.700000 1.000000
v -0.200000 3.500000 1.000000
v -0.200000 1.700000 -1.000000
v -0.200000 3.500000 -1.000000
vt 0.375000 0.000000
vt 0.625000 0.000000
vt 0.625000 0.250000
vt 0.375000 0.250000
vt 0.625000 0.500000
vt 0.375000 0.500000
vt 0.625000 0.750000
vt 0.375000 0.750000
vt 0.625000 1.000000
vt 0.375000 1.000000
vt 0.125000 0.500000
vt 0.125000 0.750000
vt 0.875000 0.500000
vt 0.875000 0.750000
vn -1.0000 0.0000 0.0000
vn 0.0000 0.0000 -1.0000
vn 1.0000 0.0000 0.0000
vn 0.0000 0.0000 1.0000
vn 0.0000 -1.0000 0.0000
vn 0.0000 1.0000 0.0000
usemtl Body
s off
f 57/99/43 58/100/43 60/101/43 59/102/43
f 59/102/44 60/101/44 64/103/44 63/104/44
f 63/104/45 64/103/45 62/105/45 61/106/45
f 61/106/46 62/105/46 58/107/46 57/108/46
f 59/109/47 63/104/47 61/106/47 57/110/47
f 64/103/48 60/111/48 58/112/48 62/105/48
o Cube.008_Cube.009
v 0.200000 1.100000 1.000000
v 0.200000 3.500000 1.000000
v 0.200000 1.100000 -1.000000
v 0.200000 3.500000 -1.000000
v 0.300000 1.100000 1.000000
v 0.300000 3.500000 1.000000
v 0.300000 1.100000 -1.000000
v 0.300000 3.500000 -1.000000
vt 0.375000 0.000000
vt 0.625000 0.000000
vt 0.625000 0.250000
vt 0.375000 0.250000
vt 0.625000 0.500000
vt 0.375000 0.500000
vt 0.625000 0.750000
vt 0.375000 0.750000
vt 0.625000 1.000000
vt 0.375000 1.000000
vt 0.125000 0.500000
vt 0.125000 0.750000
vt 0.875000 0.500000
vt 0.875000 0.750000
vn -1.0000 0.0000 0.0000
vn 0.0000 0.0000 -1.0000
vn 1.0000 0.0000 0.0000
vn 0.0000 0.0000 1.0000
vn 0.0000 -1.0000 0.0000
vn 0.0000 1.0000 0.0000
usemtl Body
s off
f 65/113/49 66/114/49 68/115/49 67/116/49
f 67/116/50 68/115/50 72/117/50 71/118/50
f 71/118/51 72/117/51 70/119/51 69/120/51
f 69/120/52 70/119/52 66/121/52 65/122/52
f 67/123/53 71/118/53 69/120/53 65/124/53
f 72/117/54 68/125/54 66/126/54 70/119/54
o Cube.009_Cube.010
v 0.200000 1.600000 -1.000000
v 0.200000 3.500000 -1.000000
v 0.200000 1.600000 -1.400000
v 0.200000 3.500000 -1.400000
v 0.300000 1.600000 -1.000000
v 0.300000 3.500000 -1.000000
v 0.300000 1.600000 -1.400000
v 0.300000 3.500000 -1.400000
vt 0.375000 0.000000
vt 0.625000 0.000000
vt 0.625000 0.250000
vt 0.375000 0.250000
vt 0.625000 0.500000
vt 0.375000 0.500000
vt 0.625000 0.750000
vt 0.375000 0.750000
vt 0.625000 1.000000
vt 0.375000 1.000000
vt 0.125000 0.500000
vt 0.125000 0.750000
vt 0.875000 0.500000
vt 0.875000 0.750000
vn -1.0000 0.0000 0.0000
vn 0.0000 0.0000 -1.0000
vn 1.0000 0.0000 0.0000
vn 0.0000 0.0000 1.0000
vn 0.0000 -1.0000 0.0000
vn 0.0000 1.0000 0.0000
usemtl Body
s off
f 73/127/55 74/128/55 76/129/55 75/130/55
f 75/130/56 76/129/56 80/131/56 79/132/56
f 79/132/57 80/131/57 78/133/57 77/134/57
f 77/134/58 78/133/58 74/135/58 73/136/58
f 75/137/59 79/132/59 77/134/59 73/138/59
f 80/131/60 76/139/60 74/140/60 78/133/60
o Cube.010_Cube.011
v 0.200000 1.600000 1.400000
v 0.200000 3.500000 1.400000
v 0.200000 1.600000 1.000000
v 0.200000 3.500000 1.000000
v 0.300000 1.600000 1.400000
v 0.300000 3.500000 1.400000
v 0.300000 1.600000 1.000000
v 0.300000 3.500000 1.000000
vt 0.375000 0.000000
vt 0.625000 0.000000
vt 0.625000 0.250000
vt 0.375000 0.250000
vt 0.625000 0.500000
vt 0.375000 0.500000
vt 0.625000 0.750000
vt 0.375000 0.750000
vt 0.625000 1.000000
vt 0.375000 1.000000
vt 0.125000 0.500000
vt 0.125000 0.750000
vt 0.875000 0.500000
vt 0.875000 0.750000
vn -1.0000 0.0000 0.0000
vn 0.0000 0.0000 -1.0000
vn 1.0000 0.0000 0.0000
vn 0.0000 0.0000 1.0000
vn 0.0000 -1.0000 0.0000
vn 0.0000 1.0000 0.0000
usemtl Body
s off
f 81/141/61 82/142/61 84/143/61 83/144/61
f 83/144/62 84/143/62 88/145/62 87/146/62
f 87/146/63 88/145/63 86/147/63 85/148/63
f 85/148/64 86/147/64 82/149/64 81/150/64
f 83/151/65 87/146/65 85/148/65 81/152/65
f 88/145/66 84/153/66 82/154/66 86/147/66
o Cube.011_Cube.012
v 0.633300 0.713060 1.400000
v -0.200000 1.500000 1.400000
v 0.633300 0.713060 1.000000
v -0.200000 1.500000 1.000000
v 0.842107 1.054234 1.400000
v 0.200000 1.500000 1.400000
v 0.842107 1.054234 1.000000
v 0.200000 1.500000 1.000000
v 0.334773 0.895766 1.400000
v 0.334773 0.895766 1.000000
v 0.543580 1.236940 1.000000
v 0.543580 1.236940 1.400000
vt 0.500000 0.000000
vt 0.625000 0.000000
vt 0.625000 0.250000
vt 0.500000 0.250000
vt 0.625000 0.500000
vt 0.500000 0.500000
vt 0.625000 0.750000
vt 0.500000 0.750000
vt 0.625000 1.000000
vt 0.500000 1.000000
vt 0.125000 0.500000
vt 0.375000 0.500000
vt 0.375000 0.750000
vt 0.125000 0.750000
vt 0.875000 0.500000
vt 0.875000 0.750000
vt 0.375000 1.000000
vt 0.375000 0.250000
vt 0.375000 0.000000
vn -0.7488 -0.6628 0.0000
vn 0.0000 0.0000 -1.0000
vn 0.6079 0.7940 0.0000
vn 0.0000 0.0000 1.0000
vn 0.8529 -0.5220 0.0000
vn 0.0000 1.0000 0.0000
vn 0.5220 0.8529 0.0000
vn -0.5220 -0.8529 0.0000
usemtl Body
s off
f 97/155/67 90/156/67 92/157/67 98/158/67
f 98/158/68 92/157/68 96/159/68 99/160/68
f 99/160/69 96/159/69 94/161/69 100/162/69
f 100/162/70 94/161/70 90/163/70 97/164/70
f 91/165/71 95/166/71 93/167/71 89/168/71
f 96/159/72 92/169/72 90/170/72 94/161/72
f 93/167/70 100/162/70 97/164/70 89/171/70
f 95/166/73 99/160/73 100/162/73 93/167/73
f 91/172/68 98/158/68 99/160/68 95/166/68
f 89/173/74 97/155/74 98/158/74 91/172/74
o Cube.012_Cube.013
v 0.080568 -1.000000 1.000000
v -0.200000 -0.300000 1.000000
v 0.080568 -1.000000 0.600000
v -0.200000 -0.300000 0.600000
v 0.480568 -1.000000 1.000000
v 0.200000 -0.300000 1.000000
v 0.480568 -1.000000 0.600000
v 0.200000 -0.300000 0.600000
v -0.200000 -0.650000 1.000000
v -0.200000 -0.650000 0.600000
v 0.200000 -0.650000 0.600000
v 0.200000 -0.650000 1.000000
vt 0.500000 0.000000
vt 0.625000 0.000000
vt 0.625000 0.250000
vt 0.500000 0.250000
vt 0.625000 0.500000
vt 0.500000 0.500000
vt 0.625000 0.750000
vt 0.500000 0.750000
vt 0.625000 1.000000
vt 0.500000 1.000000
vt 0.125000 0.500000
vt 0.375000 0.500000
vt 0.375000 0.750000
vt 0.125000 0.750000
vt 0.875000 0.500000
vt 0.875000 0.750000
vt 0.375000 1.000000
vt 0.375000 0.250000
vt 0.375000 0.000000
vn -1.0000 0.0000 0.0000
vn 0.0000 0.0000 -1.0000
vn 1.0000 0.0000 0.0000
vn 0.0000 0.0000 1.0000
vn 0.0000 -1.0000 0.0000
vn 0.0000 1.0000 0.0000
vn 0.7803 0.6255 0.0000
vn -0.7803 -0.6255 0.0000
usemtl Body
s off
f 109/174/75 102/175/75 104/176/75 110/177/75
f 110/177/76 104/176/76 108/178/76 111/179/76
f 111/179/77 108/178/77 106/180/77 112/181/77
f 112/181/78 106/180/78 102/182/78 109/183/78
f 103/184/79 107/185/79 105/186/79 101/187/79
f 108/178/80 104/188/80 102/189/80 106/180/80
f 105/186/78 112/181/78 109/183/78 101/190/78
f 107/185/81 111/179/81 112/181/81 105/186/81
f 103/191/76 110/177/76 111/179/76 107/185/76
f 101/192/82 109/174/82 110/177/82 103/191/82
o Cube.013_Cube.014
v 0.633300 0.713060 -1.000000
v -0.200000 1.500000 -1.000000
v 0.633300 0.713060 -1.400000
v -0.200000 1.500000 -1.400000
v 0.842107 1.054234 -1.000000
v 0.200000 1.500000 -1.000000
v 0.842107 1.054234 -1.400000
v 0.200000 1.500000 -1.400000
v 0.334773 0.895766 -1.000000
v 0.334773 0.895766 -1.400000
v 0.543580 1.236940 -1.400000
v 0.543580 1.236940 -1.000000
vt 0.500000 0.000000
vt 0.625000 0.000000
vt 0.625000 0.250000
vt 0.500000 0.250000
vt 0.625000 0.500000
vt 0.500000 0.500000
vt 0.625000 0.750000
vt 0.500000 0.750000
vt 0.625000 1.000000
vt 0.500000 1.000000
vt 0.125000 0.500000
vt 0.375000 0.500000
vt 0.375000 0.750000
vt 0.125000 0.750000
vt 0.875000 0.500000
vt 0.875000 0.750000
vt 0.375000 1.000000
vt 0.375000 0.250000
vt 0.375000 0.000000
vn -0.7488 -0.6628 0.0000
vn 0.0000 0.0000 -1.0000
vn 0.6079 0.7940 0.0000
vn 0.0000 0.0000 1.0000
vn 0.8529 -0.5220 0.0000
vn 0.0000 1.0000 0.0000
vn 0.5220 0.8529 0.0000
vn -0.5220 -0.8529 0.0000
usemtl Body
s off
f 121/193/83 114/194/83 116/195/83 122/196/83
f 122/196/84 116/195/84 120/197/84 123/198/84
f 123/198/85 120/197/85 118/199/85 124/200/85
f 124/200/86 118/199/86 114/201/86 121/202/86
f 115/203/87 119/204/87 117/205/87 113/206/87
f 120/197/88 116/207/88 114/208/88 118/199/88
f 117/205/86 124/200/86 121/202/86 113/209/86
f 119/204/89 123/198/89 124/200/89 117/205/89
f 115/210/84 122/196/84 123/198/84 119/204/84
f 113/211/90 121/193/90 122/196/90 115/210/90
o Cube.014_Cube.015
v 0.080568 -1.000000 -0.600000
v -0.200000 -0.300000 -0.600000
v 0.080568 -1.000000 -1.000000
v -0.200000 -0.300000 -1.000000
v 0.480568 -1.000000 -0.600000
v 0.200000 -0.300000 -0.600000
v 0.480568 -1.000000 -1.000000
v 0.200000 -0.300000 -1.000000
v -0.200000 -0.650000 -0.600000
v -0.200000 -0.650000 -1.000000
v 0.200000 -0.650000 -1.000000
v 0.200000 -0.650000 -0.600000
vt 0.500000 0.000000
vt 0.625000 0.000000
vt 0.625000 0.250000
vt 0.500000 0.250000
vt 0.625000 0.500000
vt 0.500000 0.500000
vt 0.625000 0.750000
vt 0.500000 0.750000
vt 0.625000 1.000000
vt 0.500000 1.000000
vt 0.125000 0.500000
vt 0.375000 0.500000
vt 0.375000 0.750000
vt 0.125000 0.750000
vt 0.875000 0.500000
vt 0.875000 0.750000
vt 0.375000 1.000000
vt 0.375000 0.250000
vt 0.375000 0.000000
vn -1.0000 0.0000 0.0000
vn 0.0000 0.0000 -1.0000
vn 1.0000 0.0000 0.0000
vn 0.0000 0.0000 1.0000
vn 0.0000 -1.0000 0.0000
vn 0.0000 1.0000 0.0000
vn 0.7803 0.6255 0.0000
vn -0.7803 -0.6255 0.0000
usemtl Body
s off
f 133/212/91 126/213/91 128/214/91 134/215/91
f 134/215/92 128/214/92 132/216/92 135/217/92
f 135/217/93 132/216/93 130/218/93 136/219/93
f 136/219/94 130/218/94 126/220/94 133/221/94
f 127/222/95 131/223/95 129/224/95 125/225/95
f 132/216/96 128/226/96 126/227/96 130/218/96
f 129/224/94 136/219/94 133/221/94 125/228/94
f 131/223/97 135/217/97 136/219/97 129/224/97
f 127/229/92 134/215/92 135/217/92 131/223/92
f 125/230/98 133/212/98 134/215/98 127/229/98
